HIERARCHY
ROOT hip
{
	OFFSET 0.000000 0.000000 0.000000 
	CHANNELS 6 Xposition Yposition Zposition Xrotation Zrotation Yrotation
	JOINT abdomen
	{
		OFFSET 0.000000 3.402643 0.000000 
		CHANNELS 3 Xrotation Zrotation Yrotation
		JOINT chest
		{
			OFFSET 0.000000 8.438565 -0.680529 
			CHANNELS 3 Xrotation Zrotation Yrotation
			JOINT neck
			{
				OFFSET 0.000000 10.207942 -0.272212 
				CHANNELS 3 Xrotation Zrotation Yrotation
				JOINT head
				{
					OFFSET 0.000000 3.130431 0.000000 
					CHANNELS 3 Xrotation Zrotation Yrotation
					End Site
					{
						OFFSET 0.000000 3.130435 0.000000 
					}
				}
			}
			JOINT lCollar
			{
				OFFSET 3.470700 6.669187 -0.816635 
				CHANNELS 3 Yrotation Zrotation Xrotation
				JOINT lShldr
				{
					OFFSET 3.198488 0.000000 0.000000 
					CHANNELS 3 Zrotation Yrotation Xrotation
					JOINT lForeArm
					{
						OFFSET 10.139888 0.000000 0.000000 
						CHANNELS 3 Yrotation Zrotation Xrotation
						JOINT lHand
						{
							OFFSET 8.370511 0.000000 0.000000 
							CHANNELS 3 Zrotation Yrotation Xrotation
							End Site
							{
								OFFSET 4.083176 0.000000 0.000000 
							}
						}
					}
				}
			}
			JOINT rCollar
			{
				OFFSET -3.470700 6.669187 -0.816635 
				CHANNELS 3 Yrotation Zrotation Xrotation
				JOINT rShldr
				{
					OFFSET -3.198488 0.000000 0.000000 
					CHANNELS 3 Zrotation Yrotation Xrotation
					JOINT rForeArm
					{
						OFFSET -10.139888 0.000000 0.000000 
						CHANNELS 3 Yrotation Zrotation Xrotation
						JOINT rHand
						{
							OFFSET -8.370511 0.000000 0.000000 
							CHANNELS 3 Zrotation Yrotation Xrotation
							End Site
							{
								OFFSET -4.083176 0.000000 0.000000 
							}
						}
					}
				}
			}
		}
	}
	JOINT lThigh
	{
		OFFSET 5.308129 -1.633274 1.361059 
		CHANNELS 3 Xrotation Zrotation Yrotation
		JOINT lShin
		{
			OFFSET -2.041588 -20.007561 0.000000 
			CHANNELS 3 Xrotation Zrotation Yrotation
			JOINT lFoot
			{
				OFFSET 0.000000 -19.190928 -1.224953 
				CHANNELS 3 Xrotation Yrotation Zrotation
				End Site
				{
					OFFSET 0.000000 -2.449906 4.627600 
				}
			}
		}
	}
	JOINT rThigh
	{
		OFFSET -5.308129 -1.633274 1.361059 
		CHANNELS 3 Xrotation Zrotation Yrotation
		JOINT rShin
		{
			OFFSET 2.041588 -20.007561 0.000000 
			CHANNELS 3 Xrotation Zrotation Yrotation
			JOINT rFoot
			{
				OFFSET 0.000000 -19.190928 -1.224953 
				CHANNELS 3 Xrotation Yrotation Zrotation
				End Site
				{
					OFFSET 0.000000 -2.449906 4.627600 
				}
			}
		}
	}
}
MOTION
Frames: 13
Frame Time: 0.033333
-10.406006 31.290920 62.865761 -16.699219 -18.466797 144.430496 34.638672 2.812500 8.379384 -9.238281 4.931641 8.711779 -25.908201 -5.830078 11.776354 24.033203 -16.835938 8.151469 10.712891 2.050781 -0.058594 -56.171875 13.955079 -21.513670 -51.533199 -3.046875 -94.960419 17.431654 -119.599602 -13.934275 2.275391 -1.679688 0.058880 19.531250 32.734375 -100.805267 66.250000 3.359375 -83.145111 -1.464844 25.986330 -0.019531 -96.247940 21.229815 1.029801 79.317345 1.261060 -3.760088 -8.506156 -7.434989 -8.483915 -27.566952 -40.916248 3.424088 64.908066 -1.249042 3.362635 -22.648771 -34.368137 -7.594701 
-10.055143 31.496584 62.475037 -18.984375 -17.412111 150.583008 36.523438 -0.546875 7.958997 -8.535156 4.052734 10.126953 -27.265625 -5.595703 7.402343 24.169924 -13.847657 3.923445 10.009766 0.634766 0.039063 -55.478516 12.099608 -21.746000 -63.134766 -3.232422 -91.991638 17.675793 -120.742188 -14.080660 5.087891 -3.261719 0.117743 24.345701 37.041016 -86.552734 60.693356 3.466797 -85.732422 4.306641 18.808596 1.777344 -96.962318 18.427822 3.366603 78.243637 1.396155 -4.117488 -7.792975 -10.121875 -8.668118 -22.143053 -36.886742 1.446021 64.567345 -0.888583 3.384901 -27.717548 -39.024586 -12.801085 
-9.428099 31.816422 62.172737 -21.103516 -16.347654 156.081238 37.939453 -4.238281 7.440683 -7.666016 2.460938 11.552734 -28.095701 -5.400391 2.831112 23.759766 -10.156251 -0.089612 9.306642 -0.810547 -0.068221 -55.419922 10.527344 -22.246094 -75.380859 -3.330078 -86.991615 16.406252 -121.455078 -12.791535 7.539063 -5.908203 0.254911 29.238285 41.005859 -66.936951 56.748047 3.408203 -88.544907 6.093750 9.677734 1.279297 -97.318344 16.316929 4.967289 76.676842 1.252364 -3.816550 -7.286355 -13.788770 -9.140680 -18.589808 -32.620136 -1.054482 64.742889 -0.898306 3.386225 -32.395535 -41.164818 -17.366508 
-8.578346 32.210579 61.895092 -23.378906 -15.126953 160.964249 38.720703 -7.548829 6.844420 -7.158204 0.517578 12.607423 -27.978514 -4.492188 -1.250765 23.007811 -6.298828 -4.414063 8.779297 -1.708984 -0.116896 -56.494141 9.482421 -21.972656 -87.695313 -3.447266 -80.966209 15.771508 -122.275383 -12.107867 9.257813 -9.111328 0.440999 35.244137 46.845703 -53.642578 54.824219 3.378906 -89.101563 4.746094 -1.718750 -0.390916 -97.355522 14.734058 5.746321 74.929550 0.920506 -3.804591 -6.959437 -16.628323 -9.223625 -16.461334 -29.221701 -3.780698 65.093369 -0.907204 3.414505 -33.899784 -40.503571 -18.238270 
-7.582531 32.654404 61.597324 -25.673828 -13.720702 165.222290 38.652344 -10.517578 6.355640 -6.650391 -1.416016 13.671873 -27.851563 -2.919922 -5.771485 22.080078 -2.792969 -7.519532 8.593750 -2.773438 -0.136719 -58.232426 8.906250 -20.839844 -99.072266 -3.535156 -74.696663 17.041021 -123.193359 -13.015984 10.546875 -12.714844 0.480665 36.669918 52.314453 -41.708984 51.289063 3.417969 -86.191406 5.615234 4.853516 0.537109 -97.245331 13.476462 5.986579 72.989754 1.086354 -3.781324 -6.770197 -19.610144 -9.596960 -14.743249 -26.135630 -7.350755 64.567345 -0.888586 3.384900 -33.377056 -38.983978 -16.910660 
-6.506758 33.123611 61.274426 -27.597658 -11.611328 169.062500 38.271484 -13.310547 5.886425 -6.318359 -3.349610 14.725992 -28.203123 -0.800781 -9.824355 21.347654 -0.341797 -10.292971 8.408204 -3.671875 -0.184921 -60.556641 8.330079 -19.316406 -108.496094 -3.427734 -68.808006 19.570322 -124.375000 -15.115481 11.181642 -16.083986 0.754659 24.921875 60.029297 -31.250000 45.058594 3.691406 -70.469376 -17.958984 26.093748 -7.373048 -97.216721 12.314675 4.743693 71.059944 0.722982 -3.958757 -6.483393 -22.731701 -9.987880 -12.449995 -23.442419 -12.103177 62.643681 -0.712884 3.225300 -31.878019 -36.845497 -14.642136 
-5.415901 33.587917 60.938641 150.820313 -170.859375 -7.765224 37.343754 -15.478517 5.768879 -6.328125 -4.931641 15.605470 -29.208982 1.386719 -13.017343 20.976561 1.767578 -12.548830 8.212891 -4.394531 -0.272689 -62.744141 7.783204 -17.537739 -116.044930 -3.437500 -65.546875 24.707035 -126.718750 -19.070328 10.927733 -18.906248 0.927734 -0.605469 69.277382 -36.572906 38.759766 3.164063 -37.900932 -12.285156 -14.462890 2.539062 -97.028534 11.415729 3.211173 69.129417 0.687641 -3.864757 -6.636721 -25.161646 -10.387981 -10.009069 -20.425102 -17.118299 59.307159 -0.546584 3.195684 -30.015509 -34.597069 -12.057667 
-4.356562 34.006599 60.615620 149.941422 -173.847656 -4.766672 36.054688 -17.089844 5.625000 -6.337891 -6.337891 16.142576 -30.361328 3.457031 -15.487691 20.439451 3.164063 -14.101564 8.017578 -4.941407 -0.380018 -63.906250 7.119140 -17.117929 -122.216797 -3.544922 -66.366585 31.201178 -130.058594 -23.659817 9.716797 -20.800779 1.038624 -34.179688 72.373047 -62.139133 39.033203 2.158203 -13.388673 9.931641 -14.492187 -3.183594 -96.517471 10.331595 1.480398 67.203667 0.746653 -3.566178 -6.618307 -27.842722 -10.681972 -7.382855 -16.746939 -21.461632 55.624844 -0.189633 2.852243 -27.901941 -33.330082 -10.051365 
-3.392511 34.341888 60.313934 149.589859 -176.660156 -2.305257 34.404293 -18.271484 5.292969 -6.708984 -7.744141 16.318357 -30.761717 5.097656 -16.874130 20.429688 4.394532 -14.803940 7.841796 -5.283204 -0.351563 -63.818356 6.699219 -17.518391 -127.539055 -3.408203 -69.100975 36.435562 -132.841797 -27.184896 7.734375 -21.601561 1.113281 -59.335938 68.798828 -84.854179 47.529301 2.392578 -17.578535 4.365234 -11.835938 -1.330128 -96.042084 9.804328 -1.118502 65.623573 0.414098 -3.741230 -6.437032 -29.619116 -10.714807 -4.775667 -12.943438 -24.714203 52.302593 -0.453512 2.928345 -25.243938 -32.865246 -8.116024 
-2.581266 34.560917 60.060188 150.468765 -179.306641 -0.888790 32.558594 -19.111328 4.990233 -7.070312 -9.326172 16.131231 -30.791016 6.289063 -17.352444 20.937500 5.458984 -14.823288 7.841797 -5.458984 -0.321337 -62.626953 5.966797 -17.929688 -131.679688 -3.486328 -68.417374 37.539074 -132.167969 -28.376375 4.941406 -21.884766 1.083984 -71.591797 62.578125 -97.628044 55.166016 2.333984 -14.541015 0.351563 -4.755854 -0.303542 -95.131996 9.638122 -2.911443 64.722717 0.931639 -3.896181 -6.617847 -31.398701 -11.242281 -2.325156 -9.340701 -25.002211 49.857513 -0.277282 2.566889 -22.522444 -31.304266 -6.160845 
-1.986109 34.662952 59.875374 151.865234 178.759766 -0.527132 30.537109 -19.687502 4.459601 -7.783204 -10.898437 15.761719 -30.078125 7.392578 -16.922573 21.630861 5.986328 -13.983356 7.841796 -5.283204 -0.351563 -60.996098 4.990234 -17.705080 -134.130859 -3.574219 -62.216187 33.623055 -127.402344 -26.540960 2.333984 -21.865234 1.074219 -70.439453 57.529297 -100.996094 63.408203 2.519531 -18.701603 1.201172 0.859375 -0.068211 -93.726799 9.990083 -5.551988 64.546356 0.931538 -3.908368 -7.435311 -31.783770 -11.525792 0.125854 -6.765609 -23.985531 48.613220 -0.091287 2.749102 -20.529970 -29.031012 -3.982950 
-1.598575 34.643452 59.775425 153.984390 177.353516 -1.405799 27.792969 -20.097656 3.925782 -8.496095 -12.304688 15.039064 -28.808594 8.564453 -15.595702 22.675781 6.181641 -12.646484 7.841796 -4.931641 -0.390625 -59.511719 3.642578 -17.557972 -135.654297 -3.378906 -52.645908 24.375006 -121.484383 -19.754417 0.341797 -21.533184 0.941085 -64.628906 54.628906 -102.111176 72.353516 3.037110 -31.133327 1.191406 3.134766 0.117723 -92.300926 10.878752 -8.361827 65.070831 0.921481 -3.742650 -8.396777 -31.861671 -12.017323 2.768584 -5.774605 -22.309906 47.750824 0.094321 2.634249 -18.333954 -26.740589 -1.986330 
-1.398800 34.534672 59.780212 155.917969 176.474609 -3.329478 24.667967 -20.166014 3.535157 -9.375000 -13.349609 13.962588 -27.011719 10.107423 -14.140626 23.720703 6.015625 -10.966795 8.037109 -4.394531 -0.283203 -58.027340 2.441406 -17.304270 -136.464844 -3.281250 -43.632252 13.535168 -117.480469 -10.868039 -1.171875 -20.156250 0.947266 -56.484379 54.501957 -103.505859 79.140625 3.320313 -39.257813 2.451172 7.343750 0.362578 -90.819038 12.460830 -11.127223 65.974586 0.589721 -3.629280 -10.012692 -30.653694 -12.955055 5.036062 -5.437870 -20.656088 47.399342 -0.090936 2.541052 -16.539370 -24.317844 -0.316639 
